HIERARCHY
ROOT Hips
{
	OFFSET -0.001795 -0.223333 0.028219
	CHANNELS 6 Xposition Yposition Zposition Zrotation Yrotation Xrotation 
	JOINT LeftUpLeg
	{
		OFFSET 0.069520 -0.091406 -0.006815
		CHANNELS 3 Zrotation Yrotation Xrotation
		JOINT LeftLeg
		{
			OFFSET 0.034277 -0.375199 -0.004496
			CHANNELS 3 Zrotation Yrotation Xrotation
			JOINT LeftFoot
			{
				OFFSET -0.013596 -0.397961 -0.043693
				CHANNELS 3 Zrotation Yrotation Xrotation
				JOINT LeftToe
				{
					OFFSET 0.026358 -0.055791 0.119288
					CHANNELS 3 Zrotation Yrotation Xrotation
					End Site
					{
						OFFSET 0.000000 0.000000 0.000000
					}
				}
			}
		}
	}
	JOINT RightUpLeg
	{
		OFFSET -0.067670 -0.090522 -0.004320
		CHANNELS 3 Zrotation Yrotation Xrotation
		JOINT RightLeg
		{
			OFFSET -0.038290 -0.382569 -0.008850
			CHANNELS 3 Zrotation Yrotation Xrotation
			JOINT RightFoot
			{
				OFFSET 0.015774 -0.398415 -0.042312
				CHANNELS 3 Zrotation Yrotation Xrotation
				JOINT RightToe
				{
					OFFSET -0.025372 -0.048144 0.123348
					CHANNELS 3 Zrotation Yrotation Xrotation
					End Site
					{
						OFFSET 0.000000 0.000000 0.000000
					}
				}
			}
		}
	}
	JOINT Spine
	{
		OFFSET -0.002533 0.108963 -0.026696
		CHANNELS 3 Zrotation Yrotation Xrotation
		JOINT Spine1
		{
			OFFSET 0.005487 0.135180 0.001092
			CHANNELS 3 Zrotation Yrotation Xrotation
			JOINT Spine2
			{
				OFFSET 0.001457 0.052922 0.025425
				CHANNELS 3 Zrotation Yrotation Xrotation
				JOINT Neck
				{
					OFFSET -0.002778 0.213870 -0.042857
					CHANNELS 3 Zrotation Yrotation Xrotation
					JOINT Head
					{
						OFFSET 0.005152 0.064970 0.051349
						CHANNELS 3 Zrotation Yrotation Xrotation
						End Site
						{
							OFFSET 0.000000 0.000000 0.000000
						}
					}
				}
				JOINT LeftShoulder
				{
					OFFSET 0.078845 0.121749 -0.034090
					CHANNELS 3 Zrotation Yrotation Xrotation
					JOINT LeftArm
					{
						OFFSET 0.090977 0.030469 -0.008868
						CHANNELS 3 Zrotation Yrotation Xrotation
						JOINT LeftForeArm
						{
							OFFSET 0.259612 -0.012772 -0.027456
							CHANNELS 3 Zrotation Yrotation Xrotation
							JOINT LeftHand
							{
								OFFSET 0.249234 0.008986 -0.001171
								CHANNELS 3 Zrotation Yrotation Xrotation
								End Site
								{
									OFFSET 0.000000 0.000000 0.000000
								}
							}
						}
					}
				}
				JOINT RightShoulder
				{
					OFFSET -0.081759 0.118833 -0.038615
					CHANNELS 3 Zrotation Yrotation Xrotation
					JOINT RightArm
					{
						OFFSET -0.096012 0.032551 -0.009143
						CHANNELS 3 Zrotation Yrotation Xrotation
						JOINT RightForeArm
						{
							OFFSET -0.253742 -0.013329 -0.021401
							CHANNELS 3 Zrotation Yrotation Xrotation
							JOINT RightHand
							{
								OFFSET -0.255298 0.007772 -0.005559
								CHANNELS 3 Zrotation Yrotation Xrotation
								End Site
								{
									OFFSET 0.000000 0.000000 0.000000
								}
							}
						}
					}
				}
			}
		}
	}
}
MOTION
Frames: 13
Frame Time: 0.050000
0.000000 0.892691 0.000000 -1.379369 -6.501351 6.276130 7.733379 -0.228876 -30.572581 -8.467317 3.772160 37.581343 9.129727 18.767859 0.727917 0.000000 0.000000 0.000000 -4.295716 2.328373 -27.333625 10.978771 -2.352374 38.501920 -13.666042 -32.640387 -0.754964 0.000000 0.000000 0.000000 2.364547 -1.276213 25.504038 -5.813691 1.923212 -20.894777 -0.403080 9.399969 27.988267 9.721796 -2.815522 -27.884998 0.000000 0.000000 0.000000 -7.297673 -12.761381 4.459360 -34.031268 -23.098293 0.037872 140.821105 -58.444717 -109.533989 0.000000 0.000000 0.000000 12.300071 5.928725 3.234524 37.838801 27.412511 2.114292 -141.697670 59.042957 -102.985421 0.000000 0.000000 0.000000 
-0.000120 0.891226 -0.002344 -1.775732 -6.570428 7.272004 7.947846 -0.143501 -32.135712 -8.214089 3.724816 38.296787 9.336113 19.211953 -0.420081 0.000000 0.000000 0.000000 -5.154337 2.390568 -29.622149 13.361831 -3.441906 38.729487 -14.136499 -33.324437 1.148023 0.000000 0.000000 0.000000 2.319854 -1.283658 25.755161 -5.075052 1.711846 -20.732043 0.102345 10.440232 27.584663 10.017336 -2.581733 -29.235856 0.000000 0.000000 0.000000 -11.560326 -11.299633 3.639590 -37.979616 -19.625349 -0.617948 142.653322 -65.665662 -119.740624 0.000000 0.000000 0.000000 16.928262 1.818087 1.637547 40.918437 25.830256 1.758474 -147.149511 61.466795 -112.227858 0.000000 0.000000 0.000000 
-0.000226 0.888725 -0.003946 -1.576647 -6.336927 7.183373 8.385982 -0.044587 -32.320770 -8.460649 3.865604 38.891133 9.130904 18.849340 -2.848869 0.000000 0.000000 0.000000 -5.263840 2.318647 -29.314916 12.392500 -3.032567 38.330222 -13.398584 -32.413817 -1.341760 0.000000 0.000000 0.000000 2.844704 -1.417217 25.385205 -5.095392 1.731082 -20.188045 -1.485517 10.194286 27.444053 12.682776 -4.304507 -28.218999 0.000000 0.000000 0.000000 -16.829486 -8.764961 2.217980 -42.021936 -17.845568 -1.025594 147.131982 -71.600776 -130.104667 0.000000 0.000000 0.000000 22.556554 0.029872 0.754893 45.611237 23.080318 1.089769 -150.774715 62.819044 -118.411872 0.000000 0.000000 0.000000 
-0.000154 0.887652 -0.005261 -1.184607 -7.215665 7.019274 7.618539 -0.161232 -32.520027 -8.240929 3.989032 39.634040 9.392564 19.406081 -3.131394 0.000000 0.000000 0.000000 -5.384927 2.550479 -31.358705 12.880301 -3.199806 40.628594 -14.080914 -33.462888 0.402099 0.000000 0.000000 0.000000 2.216429 -1.219987 26.162811 -5.751858 1.863035 -21.249657 -0.731078 9.165285 28.775359 13.660924 -5.715946 -25.846821 0.000000 0.000000 0.000000 -18.998271 -6.942343 1.571608 -46.387619 -13.766389 -2.691218 140.363498 -73.232856 -121.718677 0.000000 0.000000 0.000000 25.838461 -1.730469 -0.849076 48.514655 19.969295 0.005153 -152.243872 65.911536 -124.186483 0.000000 0.000000 0.000000 
0.000403 0.888226 -0.006042 -1.417391 -7.427301 7.224261 7.746599 -0.097686 -32.524870 -8.518778 4.111791 39.068394 9.612649 19.829864 -2.218435 0.000000 0.000000 0.000000 -5.248941 2.658480 -31.901150 13.233566 -3.352782 41.292276 -13.728763 -32.738594 0.468343 0.000000 0.000000 0.000000 2.420672 -1.256344 25.817999 -5.485193 1.804147 -20.215897 -0.961429 8.310970 28.470270 13.407427 -5.710304 -25.725238 0.000000 0.000000 0.000000 -21.292420 -4.429696 0.271754 -50.696183 -11.713948 -3.638358 132.141083 -74.633190 -112.359667 0.000000 0.000000 0.000000 27.031081 -3.287754 -2.283965 55.515242 17.376065 -0.517585 -147.838732 68.591544 -120.294121 0.000000 0.000000 0.000000 
0.001600 0.889221 -0.007026 -1.522839 -8.264318 7.546886 7.245560 -0.167998 -31.789328 -8.104662 3.949304 38.000580 9.938261 20.548099 -2.398281 0.000000 0.000000 0.000000 -5.173299 2.756561 -31.923361 13.086021 -3.109180 41.210938 -13.110029 -31.849302 -1.301962 0.000000 0.000000 0.000000 2.743312 -1.260556 24.763899 -5.852702 1.895123 -19.760907 -1.011204 8.443796 28.524824 13.740760 -6.318065 -24.169586 0.000000 0.000000 0.000000 -20.074717 -4.475332 0.509354 -50.737183 -8.835840 -4.861903 136.389847 -71.949976 -114.682303 0.000000 0.000000 0.000000 27.184344 -3.813513 -2.780132 57.006786 15.009210 -1.552006 -150.670725 66.833426 -122.577746 0.000000 0.000000 0.000000 
0.003303 0.891137 -0.007875 -0.953593 -9.334080 7.391571 6.630954 -0.250312 -30.822846 -8.613145 4.295975 37.044657 10.276634 21.207314 -1.755573 0.000000 0.000000 0.000000 -5.757132 2.717919 -31.901136 12.706520 -2.690725 40.043850 -13.235525 -32.072678 -1.147741 0.000000 0.000000 0.000000 2.646520 -1.146264 23.977555 -6.065277 1.956056 -18.987611 -1.390837 8.832408 27.882250 14.079726 -6.779825 -23.088910 0.000000 0.000000 0.000000 -16.444839 -4.795136 0.960944 -43.376036 -6.258224 -5.124424 148.645613 -72.125475 -131.015963 0.000000 0.000000 0.000000 25.473742 -3.982245 -2.843593 49.953754 11.420908 -3.159588 -165.169314 63.123913 -142.498737 0.000000 0.000000 0.000000 
0.005257 0.892452 -0.008617 -0.097837 -9.322906 6.691439 5.908563 -0.470299 -30.073311 -8.419856 4.240721 37.391130 9.924012 20.451563 -1.258376 0.000000 0.000000 0.000000 -6.639424 2.427960 -31.091904 12.054229 -2.388496 39.214912 -12.639511 -30.655521 -0.926766 0.000000 0.000000 0.000000 1.995896 -0.978600 24.181282 -5.921655 1.926080 -18.959002 -1.971905 8.887118 27.791059 14.200131 -7.018903 -22.267352 0.000000 0.000000 0.000000 -11.629038 -6.382292 1.940508 -31.098094 -4.915452 -4.056042 169.346494 -70.828912 -159.751630 0.000000 0.000000 0.000000 19.429251 -4.396183 -2.616535 37.550774 6.747510 -3.997698 179.943650 59.801506 -168.622473 0.000000 0.000000 0.000000 
0.006580 0.894161 -0.009242 0.468771 -8.172410 5.463643 5.378140 -0.721202 -28.737496 -8.109213 3.833848 36.960034 9.718545 20.066455 -1.753855 0.000000 0.000000 0.000000 -6.637355 2.072868 -28.415524 11.234501 -2.169837 36.889114 -12.486412 -30.075809 -0.574220 0.000000 0.000000 0.000000 1.661559 -0.958252 24.633554 -5.661756 1.900179 -18.502952 -1.744781 7.647378 28.110921 14.541731 -7.832289 -20.444802 0.000000 0.000000 0.000000 -6.150796 -8.194493 2.888844 -20.073878 -3.319848 -2.888423 179.342338 -67.991049 -174.918228 0.000000 0.000000 0.000000 13.142162 -3.162235 -1.667051 27.113839 2.349263 -3.751021 165.888800 56.770617 162.806338 0.000000 0.000000 0.000000 
0.007344 0.895415 -0.009662 0.398538 -6.533093 5.632052 5.151622 -0.922115 -29.139985 -8.175594 3.503427 36.198152 9.641076 19.903774 -1.776940 0.000000 0.000000 0.000000 -6.938033 1.813189 -27.336921 10.917021 -2.268548 35.308523 -12.392630 -29.978426 -1.145256 0.000000 0.000000 0.000000 2.126478 -1.165093 24.564446 -4.815467 1.705795 -17.961120 -2.187556 6.211068 27.685213 12.920714 -7.211241 -18.579405 0.000000 0.000000 0.000000 -2.167794 -7.195758 2.512621 -16.592133 -2.175478 -2.492494 -169.493627 -63.918597 167.403711 0.000000 0.000000 0.000000 9.363562 -3.367848 -1.645602 24.035109 -0.154459 -3.614041 162.532481 54.811444 154.615148 0.000000 0.000000 0.000000 
0.007445 0.895860 -0.009835 0.080051 -6.775964 7.332812 5.914611 -0.720968 -30.620587 -8.350709 3.577561 35.700337 10.214897 21.090758 -1.488248 0.000000 0.000000 0.000000 -6.753248 1.973307 -28.454465 10.556419 -2.081209 34.660565 -12.138542 -29.539417 -1.092107 0.000000 0.000000 0.000000 1.696829 -1.048532 24.126127 -4.020607 1.441346 -19.882710 -1.873601 5.972886 28.492277 13.185654 -7.396301 -18.808279 0.000000 0.000000 0.000000 -3.151061 -5.939695 2.077644 -17.822411 -2.504302 -2.682703 -166.113635 -61.378536 161.774373 0.000000 0.000000 0.000000 8.284524 -5.091081 -2.413191 26.860084 1.140243 -3.812708 165.045445 53.030854 158.969923 0.000000 0.000000 0.000000 
0.007186 0.896504 -0.009501 -0.614756 -6.873922 8.440118 6.832933 -0.450041 -32.270315 -8.449737 3.746481 36.766404 9.690057 19.985949 -0.722944 0.000000 0.000000 0.000000 -5.864830 2.288506 -29.834559 10.509025 -2.053011 34.891366 -12.529472 -30.212771 0.434818 0.000000 0.000000 0.000000 2.152732 -1.175264 24.308613 -3.429027 1.271537 -20.330163 -1.821004 5.515065 28.166112 14.815767 -7.860446 -21.516496 0.000000 0.000000 0.000000 -6.749753 -4.023703 1.303383 -24.917948 -3.273343 -3.610400 -166.067081 -60.672757 163.076808 0.000000 0.000000 0.000000 11.370359 -5.294004 -2.849649 33.601380 4.559808 -3.912373 169.287016 53.307798 168.607552 0.000000 0.000000 0.000000 
0.007088 0.895995 -0.009334 -0.936464 -6.856732 9.314215 7.130076 -0.341699 -34.006732 -8.156617 3.741561 38.223764 9.362376 19.334757 -0.891919 0.000000 0.000000 0.000000 -6.072666 2.382602 -31.282961 11.081164 -2.323077 35.739413 -11.810340 -28.898222 -0.420401 0.000000 0.000000 0.000000 2.613893 -1.318230 24.773601 -3.228059 1.213668 -20.968479 -1.596568 5.412283 28.091611 14.997682 -7.103704 -25.164597 0.000000 0.000000 0.000000 -13.071900 -3.598329 0.948096 -34.416206 -4.540185 -4.647844 -162.057311 -64.017526 159.503504 0.000000 0.000000 0.000000 17.201866 -5.586207 -3.629885 45.072371 8.301553 -3.797184 171.300705 56.385175 175.457171 0.000000 0.000000 0.000000 
